:SAMPLES-PER-SECOND 30
:FULLY-SPECIFIED
:DEGREES
46
root  82.7982 38.4427 -5.30364 -25.3595 -82.8468 20.7574
RightUpLeg  8.47916 -10.0557 -5.56409
RightLeg  12.7071 2.02237 0.406722
RightFoot  -17.1942 -0.15204 -0.705751
RightToes  -3.31784e-009 0 -3.6325e-017
Spine  5.58387 1.44116 9.74035
Spine1  8.07589 4.02501 -8.27427
HEad  4.09254 -4.44881 -2.18962
LeftShoulder1  -0.707877 5.47654 -29.7121
LeftArm  -7.71769 17.5107 -43.4653
LeftForeArm  37.2631 -9.76586 -6.68253
LeftHand  -0.235612 10.3328 -4.18828
RightShoulder  -1.49925 -7.25276 33.4712
RightArm  21.3376 7.17787 45.3414
RightForeArm  15.4535 10.4023 8.60862
RightHand  -0.13249 2.36892 -2.18252
LeftUpLeg  -16.7183 3.4377 -0.486828
LeftLeg  6.39292 2.78787 -0.256333
LeftFoot  -0.477425 0.515056 -5.39027
LeftToes  1.28511e-009 -3.60458e-011 6.16399e-011
47
root  82.0977 38.3131 -5.06131 -25.0956 -83.5741 20.6144
RightUpLeg  9.50016 -10.0547 -5.79081
RightLeg  12.7232 2.85103 0.430225
RightFoot  -18.2301 -0.132604 -0.148965
RightToes  -3.31784e-009 0 -3.6325e-017
Spine  5.45097 1.47124 10.0354
Spine1  7.90579 4.24306 -8.98745
HEad  3.82202 -4.09783 -1.94461
LeftShoulder1  -0.748492 5.589 -29.7187
LeftArm  -6.63751 18.122 -43.3282
LeftForeArm  36.835 -9.98544 -7.07687
LeftHand  -0.322386 13.4322 -3.40011
RightShoulder  -1.51054 -7.24276 33.8697
RightArm  21.671 6.30535 45.1574
RightForeArm  15.3765 11.1211 8.34662
RightHand  -0.116471 3.03025 -1.82841
LeftUpLeg  -16.7635 4.37486 -0.493682
LeftLeg  7.38265 4.07893 -0.140138
LeftFoot  0.297049 0.40667 -3.9827
LeftToes  1.28511e-009 -3.60458e-011 6.16399e-011
48
root  81.2773 38.1731 -4.77905 -27.624 -84.1406 23.0753
RightUpLeg  11.0992 -10.2396 -6.55169
RightLeg  12.4472 3.87945 0.453636
RightFoot  -19.2347 -0.116261 0.201017
RightToes  -3.31784e-009 0 -3.6325e-017
Spine  4.6084 1.59892 9.49406
Spine1  8.78591 4.40179 -8.92191
HEad  3.64777 -3.62423 -2.03266
LeftShoulder1  -0.820576 5.77295 -29.989
LeftArm  -6.6406 18.4336 -42.927
LeftForeArm  37.0387 -9.9145 -7.06075
LeftHand  -0.294712 12.2133 -3.71965
RightShoulder  -1.50948 -7.26446 33.6158
RightArm  21.1782 5.48702 45.3989
RightForeArm  15.4444 10.9886 8.27344
RightHand  -0.0843422 3.13997 -1.36246
LeftUpLeg  -16.3079 5.09457 -1.02273
LeftLeg  9.02723 5.42387 0.363863
LeftFoot  1.52936 0.245629 -2.33125
LeftToes  1.28511e-009 -3.60458e-011 6.16399e-011
49
root  80.4252 38.0846 -4.48231 -35.2039 -84.8087 30.8674
RightUpLeg  12.515 -9.98455 -7.51463
RightLeg  11.8159 4.82998 0.129482
RightFoot  -19.9797 -0.0641772 0.940048
RightToes  -3.31784e-009 0 -3.6325e-017
Spine  3.54987 1.96714 8.39106
Spine1  9.6749 4.80324 -9.05966
HEad  3.43703 -3.22382 -1.9691
LeftShoulder1  -0.853326 5.84633 -30.2527
LeftArm  -6.44987 18.6523 -42.6184
LeftForeArm  36.3443 -9.99259 -7.07471
LeftHand  -0.257226 11.6076 -3.56841
RightShoulder  -1.49045 -7.2454 33.3168
RightArm  21.2066 4.40791 45.6491
RightForeArm  15.3621 10.7791 8.38371
RightHand  -0.166574 4.01487 -2.33325
LeftUpLeg  -16.2241 6.07918 -1.89532
LeftLeg  10.6631 6.24745 0.666278
LeftFoot  4.48875 -0.204845 1.25296
LeftToes  1.28511e-009 -3.60458e-011 6.16399e-011
50
root  79.5797 37.9578 -4.16214 -41.0971 -84.4043 36.6511
RightUpLeg  13.9576 -9.75422 -8.82941
RightLeg  12.1057 4.86832 -0.158893
RightFoot  -20.8828 0.0187659 1.91483
RightToes  -3.31784e-009 0 -3.6325e-017
Spine  3.14918 1.79078 6.66556
Spine1  9.92314 4.52145 -8.80926
HEad  3.56199 -2.7426 -1.84811
LeftShoulder1  -0.878467 5.88908 -30.6614
LeftArm  -5.26569 18.1614 -42.2383
LeftForeArm  36.3294 -10.1919 -7.44675
LeftHand  -0.266904 13.4529 -2.66117
RightShoulder  -1.47155 -7.20831 33.2066
RightArm  21.4862 3.32603 45.8519
RightForeArm  15.639 10.9784 8.34533
RightHand  -0.170572 3.77946 -2.41903
LeftUpLeg  -16.4101 6.88086 -3.27811
LeftLeg  13.4166 4.94909 1.03589
LeftFoot  5.73838 -0.595812 3.7647
LeftToes  1.28511e-009 -3.60458e-011 6.16399e-011
51
root  78.7136 37.8097 -3.83023 -48.6291 -83.6863 43.8279
RightUpLeg  15.0092 -8.37089 -10.1613
RightLeg  13.7238 3.79017 -0.573377
RightFoot  -21.8027 0.167534 3.42941
RightToes  -3.31784e-009 0 -3.6325e-017
Spine  3.31817 1.71151 4.85859
Spine1  9.8021 4.41574 -8.79823
HEad  3.49732 -2.79084 -2.00156
LeftShoulder1  -0.883005 5.86888 -31.1625
LeftArm  -5.88217 16.4164 -41.6785
LeftForeArm  38.1494 -9.02171 -7.5656
LeftHand  -0.219843 12.2659 -2.60443
RightShoulder  -1.48013 -7.2303 33.1993
RightArm  20.3925 1.46551 46.056
RightForeArm  16.3299 11.2924 7.9312
RightHand  -0.170904 3.49523 -2.48299
LeftUpLeg  -16.5899 6.91027 -4.98723
LeftLeg  17.5137 4.89725 2.08792
LeftFoot  2.75772 -0.513954 4.02485
LeftToes  1.28511e-009 -3.60458e-011 6.16399e-011
52
root  77.8957 37.7705 -3.46275 -53.8274 -82.9172 48.4683
RightUpLeg  15.4892 -4.70088 -10.867
RightLeg  16.658 0.980714 -0.606468
RightFoot  -21.7264 0.460607 6.71931
RightToes  -3.31784e-009 0 -3.6325e-017
Spine  2.91136 1.68003 3.43455
Spine1  11.1754 4.46746 -9.04988
HEad  3.00069 -2.67159 -2.25176
LeftShoulder1  -0.920642 5.95414 -31.4079
LeftArm  -6.28769 13.4823 -42.0316
LeftForeArm  38.1725 -8.01054 -7.71216
LeftHand  -0.224384 15.2439 -1.53939
RightShoulder  -1.40946 -7.12483 32.4207
RightArm  19.6502 -0.0877707 46.8587
RightForeArm  16.2884 11.531 7.66448
RightHand  -0.167724 2.76209 -2.60428
LeftUpLeg  -15.349 6.01275 -6.28565
LeftLeg  19.1657 5.9926 2.64201
LeftFoot  0.887977 -0.514086 4.74182
LeftToes  1.28511e-009 -3.60458e-011 6.16399e-011
53
root  77.1599 37.8236 -3.10734 -63.6231 -82.97 57.8588
RightUpLeg  14.4159 -0.211618 -11.1132
RightLeg  21.4607 -1.03295 -0.568176
RightFoot  -20.3675 0.776048 11.5822
RightToes  -3.31784e-009 0 -3.6325e-017
Spine  3.0343 2.11832 2.38359
Spine1  11.7879 4.89984 -9.67188
HEad  3.31327 -2.33069 -2.77678
LeftShoulder1  -0.850693 5.75127 -31.6916
LeftArm  -6.14615 10.9977 -42.2888
LeftForeArm  38.3083 -7.67191 -7.84293
LeftHand  -0.28457 15.2332 -2.27236
RightShoulder  -1.37294 -7.05153 32.1884
RightArm  20.8323 -1.14934 46.8658
RightForeArm  15.5744 11.8944 7.772
RightHand  -0.154641 2.2668 -2.52299
LeftUpLeg  -13.7654 6.6502 -7.1547
LeftLeg  19.7194 6.50348 2.89677
LeftFoot  -0.880319 -0.453984 5.0101
LeftToes  1.28511e-009 -3.60458e-011 6.16399e-011
54
root  76.4671 37.8337 -2.78551 -71.7541 -82.7535 65.7459
RightUpLeg  11.756 1.33259 -12.1964
RightLeg  28.6226 -0.650929 -0.625486
RightFoot  -17.7604 0.777706 16.2093
RightToes  -3.31784e-009 0 -3.6325e-017
Spine  3.4945 2.37428 -0.110666
Spine1  11.6304 4.47794 -8.58366
HEad  3.28015 -1.30515 -3.56925
LeftShoulder1  -0.938215 5.93158 -32.4289
LeftArm  -5.25796 8.62094 -42.5494
LeftForeArm  38.6169 -7.89181 -8.12916
LeftHand  -0.208693 14.0831 -1.67863
RightShoulder  -1.27354 -6.85633 31.4733
RightArm  22.6837 -1.59418 47.0026
RightForeArm  15.8541 11.8599 8.14434
RightHand  -0.123255 4.47358 -1.82326
LeftUpLeg  -12.4551 7.07429 -7.98101
LeftLeg  20.2939 7.01566 3.04634
LeftFoot  -2.69111 -0.361151 4.98362
LeftToes  1.28511e-009 -3.60458e-011 6.16399e-011
55
root  75.7482 37.9143 -2.49662 -73.4074 -82.8915 67.3788
RightUpLeg  7.7312 2.17721 -12.4534
RightLeg  37.0799 -0.809835 -0.906977
RightFoot  -11.8135 0.0317109 16.7478
RightToes  -3.31784e-009 0 -3.6325e-017
Spine  4.8868 2.3107 -2.73213
Spine1  9.26609 3.28344 -6.02188
HEad  3.437 -0.371742 -4.75898
LeftShoulder1  -1.09063 6.2187 -33.9969
LeftArm  -2.61547 7.1108 -41.4957
LeftForeArm  36.6098 -9.40996 -8.6433
LeftHand  -0.177294 13.0647 -1.55703
RightShoulder  -1.20618 -6.71796 31.0118
RightArm  25.2627 -3.14136 46.265
RightForeArm  16.33 13.3675 7.77295
RightHand  -0.0103709 5.7565 -0.566434
LeftUpLeg  -11.067 7.03581 -8.04557
LeftLeg  20.2288 7.42684 2.91517
LeftFoot  -4.23983 -0.278326 4.89741
LeftToes  1.28511e-009 -3.60458e-011 6.16399e-011
